<?xml version="1.0" standalone="no"?>
<!DOCTYPE svg PUBLIC "-//W3C//DTD SVG 20010904//EN"
 "http://www.w3.org/TR/2001/REC-SVG-20010904/DTD/svg10.dtd">
<svg version="1.0" xmlns="http://www.w3.org/2000/svg"
 width="260.000000pt" height="260.000000pt" viewBox="0 0 260.000000 260.000000"
 preserveAspectRatio="xMidYMid meet">
<metadata>
Created by potrace 1.11, written by Peter Selinger 2001-2013
</metadata>
<g transform="translate(0.000000,260.000000) scale(0.100000,-0.100000)"
fill="#000000" stroke="none">
<path d="M1115 2224 c-123 -28 -216 -69 -280 -126 -24 -21 -57 -66 -74 -99
-39 -78 -38 -152 2 -220 34 -58 51 -73 110 -99 99 -44 266 -19 362 55 43 32
88 98 104 150 22 72 22 72 33 45 27 -69 2 -254 -48 -353 -122 -241 -371 -411
-778 -528 -114 -34 -145 -37 -66 -8 371 138 600 285 685 441 26 47 49 118 38
118 -2 0 -27 -15 -56 -33 -115 -73 -243 -108 -379 -103 -169 6 -289 111 -312
274 -2 19 -6 36 -8 38 -8 7 -146 -209 -186 -291 -70 -141 -114 -312 -111 -423
12 -351 297 -485 689 -324 188 77 417 270 564 476 167 233 243 482 212 699
-20 143 -130 262 -276 300 -53 13 -184 20 -225 11z"/>
<path d="M2315 1699 c-392 -132 -720 -397 -921 -744 l-29 -50 41 30 c37 27
271 207 831 638 112 86 196 157 186 157 -10 0 -58 -14 -108 -31z"/>
<path d="M1848 895 c-2 -2 -46 -5 -98 -9 -52 -3 -107 -8 -123 -11 -15 -3 -53
-9 -85 -15 -84 -15 -92 -16 -157 -34 -33 -9 -67 -18 -76 -20 -134 -32 -414
-166 -576 -276 -120 -81 -224 -167 -189 -156 15 5 203 54 316 82 8 2 96 24
195 49 99 25 376 95 615 156 239 61 487 124 550 140 63 17 123 32 134 34 10 3
21 6 23 9 6 5 -156 34 -238 41 -67 7 -287 14 -291 10z"/>
</g>
</svg>
